<?xml version="1.0" encoding="UTF-8"?>
<svg version="1.1" xmlns="http://www.w3.org/2000/svg" width="1092" height="228">
<path d="M0 0 C0 0.66 0 1.32 0 2 C0.59425781 2.27328125 1.18851563 2.5465625 1.80078125 2.828125 C14.52314453 9.60735943 21.70212709 26.97481375 26 40 C26.88987676 43.3213077 27.53027819 46.59604197 28 50 C28.20625 51.258125 28.4125 52.51625 28.625 53.8125 C31.20051057 77.70751477 23.90911079 97.91945839 9.84765625 116.90625 C9.23792969 117.5971875 8.62820312 118.288125 8 119 C7.34 119 6.68 119 6 119 C6 119.66 6 120.32 6 121 C-6.16552612 132.75106932 -21.9188248 140.25239702 -36.55078125 148.3984375 C-44.97594665 153.09319464 -53.34362317 157.88714091 -61.70947266 162.68652344 C-65.09571256 164.62832376 -68.48531271 166.5642261 -71.875 168.5 C-72.90367188 169.0878125 -73.93234375 169.675625 -74.9921875 170.28125 C-75.98476562 170.8484375 -76.97734375 171.415625 -78 172 C-78.60142822 172.359729 -79.20285645 172.71945801 -79.82250977 173.09008789 C-83.81714727 175.45396167 -86.31257136 176.72915557 -91 176 C-93.3125 175.0625 -93.3125 175.0625 -95 173 C-96.21107919 168.08945236 -96.04172214 163.91439941 -95 159 C-95.84300911 159.32041008 -95.84300911 159.32041008 -96.70304871 159.64729309 C-98.42945724 160.30345839 -100.155873 160.95960464 -101.8822937 161.61573792 C-103.93719972 162.39676251 -105.99206927 163.17788305 -108.04690552 163.95909119 C-113.72652879 166.11814224 -119.4068827 168.27523682 -125.08862305 170.42871094 C-134.94081918 174.16455412 -144.79139978 177.90100542 -154.6015625 181.74609375 C-155.94885601 182.27073111 -157.29626216 182.79507931 -158.64379883 183.3190918 C-161.02792088 184.24897397 -163.40823179 185.18870885 -165.78393555 186.13989258 C-166.82074463 186.54232178 -167.85755371 186.94475098 -168.92578125 187.359375 C-170.23156128 187.87709473 -170.23156128 187.87709473 -171.5637207 188.40527344 C-174.43645989 189.10654537 -176.19341086 188.88475993 -179 188 C-181 186 -181 186 -181.44140625 182.7109375 C-181.2688567 176.27005416 -178.37137594 170.4887688 -175.9375 164.625 C-175.42509506 163.36214694 -174.91412096 162.09871242 -174.40454102 160.8347168 C-173.39793364 158.34125754 -172.38458134 155.85093897 -171.3671875 153.36181641 C-169.67360054 149.19740704 -168.04766863 145.00965967 -166.4375 140.8125 C-163.56615522 133.39869485 -160.63211522 126.00996651 -157.6875 118.625 C-157.25429443 117.53550049 -156.82108887 116.44600098 -156.37475586 115.32348633 C-155.96620361 114.30150146 -155.55765137 113.2795166 -155.13671875 112.2265625 C-154.77280029 111.31471191 -154.40888184 110.40286133 -154.03393555 109.46337891 C-153.10685503 107.25458496 -152.10104706 105.12639519 -151 103 C-151.74765625 103.09539062 -152.4953125 103.19078125 -153.265625 103.2890625 C-154.25046875 103.39992188 -155.2353125 103.51078125 -156.25 103.625 C-157.22453125 103.74101562 -158.1990625 103.85703125 -159.203125 103.9765625 C-162.29374628 104.00246156 -163.61520193 103.97326212 -166 102 C-167.64227435 98.21958452 -168.30209676 96.02175836 -167.12109375 92.02734375 C-166.56550781 91.00769531 -166.00992188 89.98804687 -165.4375 88.9375 C-164.96799927 88.06182373 -164.96799927 88.06182373 -164.48901367 87.16845703 C-163.35756639 85.09294602 -162.18415689 83.04589482 -161 81 C-160.53045898 80.18515137 -160.06091797 79.37030273 -159.57714844 78.53076172 C-154.71598085 70.1383098 -149.70853134 61.8342202 -144.703125 53.52734375 C-143.65616784 51.78911199 -142.60929073 50.050832 -141.5625 48.3125 C-141.05992676 47.47904053 -140.55735352 46.64558105 -140.03955078 45.78686523 C-137.00977037 40.74350722 -134.13099277 35.64564572 -131.36328125 30.453125 C-128.7948776 25.8314703 -125.88763348 21.4262995 -123 17 C-122.58363281 16.33226562 -122.16726562 15.66453125 -121.73828125 14.9765625 C-120.87899831 13.61576498 -119.94868579 12.3000509 -119 11 C-118.34 11 -117.68 11 -117 11 C-116.7525 10.38125 -116.505 9.7625 -116.25 9.125 C-114.79371361 6.64931313 -113.62187494 6.04874998 -111 5 C-111 4.34 -111 3.68 -111 3 C-79.02357014 -28.29968002 -34.17826099 -22.78550733 0 0 Z M-68 10 C-68.66773437 10.26683594 -69.33546875 10.53367187 -70.0234375 10.80859375 C-82.59439913 16.39844823 -90.851599 26.17002998 -95.875 38.75 C-100.69161251 51.70062702 -100.21441435 65.15285877 -94.78125 77.84765625 C-87.65400703 91.92396112 -76.74509791 100.67960385 -62 106 C-46.51693154 109.09661369 -32.20335122 106.57624611 -19 98 C-11.8554903 92.86115691 -7.13695732 86.72732183 -3 79 C-2.34644531 77.80697266 -2.34644531 77.80697266 -1.6796875 76.58984375 C3.10969628 66.02305645 2.72530928 51.21592828 -0.625 40.25 C-2.74466878 35.01404625 -5.53932641 30.4506259 -9 26 C-9.53625 25.30003906 -10.0725 24.60007812 -10.625 23.87890625 C-18.28590092 14.49784933 -28.28096831 9.60347001 -40 7 C-49.62000802 6.5086047 -59.00219913 6.10769288 -68 10 Z " fill="#FEFEFE" transform="translate(195,35)"/>
<path d="M0 0 C4.81551671 4.56697391 8.05684225 9.70529559 10.625 15.8125 C10.625 16.4725 10.625 17.1325 10.625 17.8125 C8.25541318 19.38328271 5.89716528 20.83369041 3.4375 22.25 C2.76396484 22.64509766 2.09042969 23.04019531 1.39648438 23.44726562 C0.07574603 24.22166928 -1.24826473 24.99052222 -2.57568359 25.75341797 C-4.09889931 26.64998646 -5.58047092 27.61673388 -7.05078125 28.59765625 C-9.81994841 30.04506967 -11.30186802 30.43313252 -14.375 29.8125 C-16.1484375 27.765625 -16.1484375 27.765625 -17.75 25.0625 C-20.82005561 20.38149048 -23.16293477 17.81469579 -28.375 15.8125 C-29.09171875 15.51730469 -29.8084375 15.22210938 -30.546875 14.91796875 C-42.20276672 10.74698789 -54.10794618 12.12305315 -65.375 16.8125 C-71.93865908 19.93975061 -75.42125249 25.30348194 -78.375 31.8125 C-79.62669903 35.7721549 -80.5462329 39.74617511 -81.375 43.8125 C-81.54628418 44.41819824 -81.71756836 45.02389648 -81.89404297 45.64794922 C-85.31470233 61.04265271 -83.12136051 80.57128125 -75.625 94.4375 C-70.74964617 101.67150382 -64.82205811 105.37641169 -56.3671875 107.34375 C-45.79316104 109.00025545 -36.55370484 107.90185242 -27 103.125 C-18.9281551 96.01408902 -19.16120628 86.03318169 -18.375 75.8125 C-29.595 75.8125 -40.815 75.8125 -52.375 75.8125 C-52.375 67.8925 -52.375 59.9725 -52.375 51.8125 C-31.255 51.8125 -10.135 51.8125 11.625 51.8125 C11.625 78.2125 11.625 104.6125 11.625 131.8125 C8.32148101 132.913673 6.11112828 132.84359831 2.64453125 132.69140625 C1.48115234 132.64306641 0.31777344 132.59472656 -0.88085938 132.54492188 C-2.09580078 132.48884766 -3.31074219 132.43277344 -4.5625 132.375 C-5.78904297 132.32279297 -7.01558594 132.27058594 -8.27929688 132.21679688 C-11.31141544 132.08701748 -14.34324007 131.95040371 -17.375 131.8125 C-17.705 126.2025 -18.035 120.5925 -18.375 114.8125 C-19.344375 116.33875 -20.31375 117.865 -21.3125 119.4375 C-27.72310059 128.55680507 -36.17312338 132.39784566 -46.875 134.5 C-61.92653786 135.84388731 -78.28358627 133.40321967 -90.5625 124.125 C-104.73273645 112.05815802 -112.11301782 94.37340674 -114.19189453 76.12060547 C-116.25848874 50.07049656 -113.62624842 25.23442995 -96.1875 4.625 C-72.61519352 -20.52404938 -26.16456371 -21.89519628 0 0 Z " fill="#FEFEFE" transform="translate(937.375,68.1875)"/>
<path d="M0 0 C2.26606379 2.1205772 4.1242033 4.41669961 6.0078125 6.87890625 C5.65477051 7.3478833 5.30172852 7.81686035 4.93798828 8.30004883 C3.3354197 10.42986827 1.73410372 12.56062629 0.1328125 14.69140625 C-0.42277344 15.42939453 -0.97835937 16.16738281 -1.55078125 16.92773438 C-2.35322266 17.99604492 -2.35322266 17.99604492 -3.171875 19.0859375 C-3.66413574 19.74053955 -4.15639648 20.3951416 -4.66357422 21.06958008 C-5.81751245 22.64103106 -6.91073099 24.25672148 -7.9921875 25.87890625 C-10.1796875 26.44140625 -10.1796875 26.44140625 -12.9921875 25.87890625 C-14.5234375 24.671875 -14.5234375 24.671875 -16.1796875 23.12890625 C-24.90962651 15.06610232 -36.65275585 14.4007605 -47.98828125 14.59375 C-53.8834455 14.87049869 -59.54962885 16.33158775 -63.72265625 20.68359375 C-66.1172396 24.82438096 -65.6688859 29.26261717 -64.9921875 33.87890625 C-61.94061584 39.66636974 -58.09187389 40.82557516 -52.10180664 42.92651367 C-47.01597122 44.48416806 -41.84819083 45.39004925 -36.6171875 46.31640625 C-20.63985904 49.34792372 -5.68520391 53.76325331 5.0078125 66.87890625 C12.02720064 77.38605288 12.49272602 91.62003374 10.54296875 103.77734375 C7.54483815 115.02476861 1.08572864 123.2116645 -8.50390625 129.53515625 C-26.80484219 139.94907795 -51.37987976 138.23992563 -71.05078125 132.9140625 C-82.82102893 128.77181066 -93.61316716 121.78497329 -99.9921875 110.87890625 C-99.48329003 106.40408073 -96.48999792 103.62739188 -93.6171875 100.37890625 C-92.62925077 99.24432267 -91.64224721 98.10892576 -90.65625 96.97265625 C-89.95290527 96.17601562 -89.95290527 96.17601562 -89.23535156 95.36328125 C-87.86040197 93.78578416 -87.86040197 93.78578416 -86.453125 91.47265625 C-84.9921875 89.87890625 -84.9921875 89.87890625 -82.47265625 89.40625 C-79.9921875 89.87890625 -79.9921875 89.87890625 -78.54296875 91.3828125 C-78.13433594 92.06214844 -77.72570312 92.74148437 -77.3046875 93.44140625 C-71.27373299 102.20805146 -61.60737414 107.07818825 -51.3671875 109.12890625 C-42.78417906 110.39807291 -33.22733433 110.70323318 -25.515625 106.1640625 C-22.16049649 103.3337105 -21.24255732 99.89974836 -20.71875 95.671875 C-20.48846052 90.47264715 -21.17587783 86.36739978 -23.9921875 81.87890625 C-30.91356974 77.63757672 -38.31832342 76.17807868 -46.1796875 74.44140625 C-59.30566705 71.53742847 -73.11648776 68.25049454 -83.9921875 59.87890625 C-83.9921875 59.21890625 -83.9921875 58.55890625 -83.9921875 57.87890625 C-84.9821875 57.54890625 -85.9721875 57.21890625 -86.9921875 56.87890625 C-88.74609375 54.5859375 -88.74609375 54.5859375 -90.5546875 51.69140625 C-91.45380859 50.27794922 -91.45380859 50.27794922 -92.37109375 48.8359375 C-97.32631991 39.79712737 -97.9363421 29.51386154 -95.78125 19.54296875 C-92.38956244 8.0918256 -86.03134048 0.55485343 -75.92578125 -5.546875 C-54.10019648 -17.25887322 -19.48863524 -15.49742028 0 0 Z " fill="#FEFEFE" transform="translate(364.9921875,66.12109375)"/>
<path d="M0 0 C0.33 27.39 0.66 54.78 1 83 C9.06176999 72.74251124 9.06176999 72.74251124 17.0625 62.4375 C17.90296875 61.39078125 18.7434375 60.3440625 19.609375 59.265625 C21.33891586 57.03492584 22.61924484 54.84482241 23.828125 52.296875 C25.93247485 48.26742877 27.79787044 45.04261094 32 43 C41.51342587 41.37779711 51.43073453 42.21142683 61 43 C61.33 43.66 61.66 44.32 62 45 C57.96775269 51.43117925 53.43275298 57.38212903 48.69604492 63.30126953 C46.10445492 66.48888642 46.10445492 66.48888642 44 70 C43.34 70 42.68 70 42 70 C41.73195557 70.57741943 41.46391113 71.15483887 41.18774414 71.74975586 C39.97206825 74.05291818 38.60315611 75.95723837 36.99609375 78.00390625 C36.42052734 78.74447266 35.84496094 79.48503906 35.25195312 80.24804688 C34.03893405 81.79533171 32.82538933 83.3422046 31.61132812 84.88867188 C31.03705078 85.62794922 30.46277344 86.36722656 29.87109375 87.12890625 C29.34443115 87.79994385 28.81776855 88.47098145 28.27514648 89.16235352 C26.81741932 91.07935258 26.81741932 91.07935258 26 94 C27.62916008 96.9356378 27.62916008 96.9356378 29.875 100 C33.91390728 105.74172185 33.91390728 105.74172185 35 109 C35.66 109 36.32 109 37 109 C38.70731149 111.3008929 40.30175758 113.60934239 41.875 116 C46.34411715 122.65570131 51.00233872 129.12214542 55.85107422 135.50585938 C56.78408632 136.73450147 57.71373462 137.9657068 58.63964844 139.19970703 C59.56580933 140.42539088 60.5072875 141.639616 61.46191406 142.84326172 C64.23898445 146.45852728 65.26478232 148.48281367 65 153 C38.23313699 154.29870115 38.23313699 154.29870115 31.67919922 150.73974609 C28.3782872 147.65717117 26.56502857 143.90066516 24.82568359 139.78320312 C23.58645603 137.10688199 21.78862093 135.03847557 19.875 132.8125 C17.08408353 129.39137658 14.44873052 125.90012436 11.875 122.3125 C6.84624157 114.66926569 6.84624157 114.66926569 0 109 C0 123.19 0 137.38 0 152 C-9.9 152 -19.8 152 -30 152 C-30.0297354 137.35417212 -30.05096843 122.70835394 -30.0625 108.0625 C-30.06335602 106.98295422 -30.06421204 105.90340843 -30.06509399 104.79114914 C-30.08957952 69.84887429 -29.86089992 34.93284593 -29 0 C-19.52105347 -1.89578931 -9.65828637 -0.4024286 0 0 Z " fill="#FEFEFE" transform="translate(748,48)"/>
<path d="M0 0 C0.88034912 0.00563965 1.76069824 0.0112793 2.66772461 0.01708984 C17.6436769 0.29511046 29.95025966 5.27124521 40.890625 15.63671875 C51.46975774 27.63457624 54.83471348 41.4660354 54.6875 57.1875 C54.67992676 58.32574219 54.67235352 59.46398437 54.66455078 60.63671875 C54.36167079 76.11233866 49.90947976 88.91738516 39.27734375 100.43359375 C27.91906379 110.96024627 13.54094997 114.47786047 -1.57714844 114.40332031 C-16.80401815 113.76687138 -29.01736351 109.20747889 -39.75 98.3125 C-40.42417969 97.63703125 -41.09835937 96.9615625 -41.79296875 96.265625 C-52.34417784 85.01700124 -54.41747917 68.80292707 -54.0390625 53.85546875 C-52.7095265 37.55966945 -48.75644922 23.89036759 -36.65234375 12.3046875 C-26.28335865 3.61054754 -13.33473589 -0.08955498 0 0 Z M-18.5625 32.875 C-25.91900722 42.74166678 -24.73802666 58.24806618 -23.31640625 69.8515625 C-21.90244051 76.78965526 -19.31785437 81.83352037 -13.75 86.3125 C-7.18428008 90.48682624 1.11631361 90.20152549 8.55078125 88.9140625 C15.01073962 86.98234679 18.9306267 82.1696263 22.31640625 76.5390625 C27.11344548 65.92532352 25.86334991 51.36397974 23.25 40.3125 C20.9577067 34.58622646 16.61200275 29.43044526 11.25 26.3125 C-0.90678137 23.57175952 -9.41971845 24.54491015 -18.5625 32.875 Z " fill="#FEFEFE" transform="translate(528.75,88.6875)"/>
<path d="M0 0 C0.90105469 0.37382813 1.80210938 0.74765625 2.73046875 1.1328125 C15.5061664 6.96981808 22.53682788 16.66565553 27.875 29.4375 C30.1203986 35.68780627 30.8688135 41.39148026 31 48 C31.061875 49.16273438 31.12375 50.32546875 31.1875 51.5234375 C31.71598978 67.27903906 28.05479702 81.09056437 17.75 93.1875 C6.57435528 105.10203032 -7.20506344 109.6054942 -23.3125 110.3125 C-38.79544064 109.82865811 -52.49527216 105.25973918 -63.8125 94.4140625 C-73.98113664 83.19224564 -77.17897557 69.60805134 -77.1875 54.9375 C-77.20586914 53.31424805 -77.20586914 53.31424805 -77.22460938 51.65820312 C-77.25450908 35.04393374 -73.1638987 21.28105449 -61.37890625 9.1171875 C-45.08692498 -5.38240831 -19.81828207 -8.38782063 0 0 Z M-42 28 C-46.9740037 36.13638944 -47.24099379 43.23385122 -47.3125 52.625 C-47.34150391 53.87152344 -47.37050781 55.11804688 -47.40039062 56.40234375 C-47.46168533 65.33251056 -46.38460214 71.76924732 -40.75 78.8125 C-34.07614037 84.12125198 -28.82341853 85.68288245 -20.19140625 85.3828125 C-13.90332122 84.62855016 -9.6840698 82.61084937 -5.125 78.25 C2.59904775 66.4367505 2.57624579 50.94953093 -0.2421875 37.47265625 C-2.11974821 31.34638857 -5.55962355 26.44999482 -11 23 C-20.91348324 18.2792937 -34.44737804 20.10407705 -42 28 Z " fill="#FEFEFE" transform="translate(1049,93)"/>
<path d="M0 0 C6.57322397 4.86005469 13.04972242 10.88529792 14.9375 19.0625 C12.54364464 20.83606076 10.1475227 22.60640883 7.75 24.375 C7.07646484 24.87451172 6.40292969 25.37402344 5.70898438 25.88867188 C3.79689084 27.29709199 1.87064657 28.68317663 -0.0625 30.0625 C-0.96613281 30.71605469 -1.86976563 31.36960938 -2.80078125 32.04296875 C-5.0625 33.0625 -5.0625 33.0625 -7.234375 32.4921875 C-9.30346378 30.87405397 -10.13285275 29.52038449 -11.3125 27.1875 C-13.54095212 23.52884727 -15.45484305 21.37810952 -19.42578125 19.69140625 C-26.66407134 17.96494002 -36.08681818 17.3184264 -42.75 21.0625 C-48.51381783 25.56667553 -51.70907027 31.95907483 -53.0625 39.0625 C-53.38677921 42.64961503 -53.44362792 46.21204126 -53.4375 49.8125 C-53.43588867 50.78952881 -53.43427734 51.76655762 -53.43261719 52.77319336 C-53.28738449 61.3056142 -51.61740571 67.61507155 -47.375 75 C-41.28966248 80.42746319 -34.87848815 81.68810869 -26.859375 81.3828125 C-20.6573022 80.67251925 -15.1308347 77.91138729 -11.0625 73.0625 C-9.88425904 70.72990135 -8.91012788 68.40938237 -8.01953125 65.953125 C-7.0625 64.0625 -7.0625 64.0625 -4.0625 63.0625 C-1.90185547 63.92700195 -1.90185547 63.92700195 0.5703125 65.30078125 C1.45847656 65.79126953 2.34664062 66.28175781 3.26171875 66.78710938 C4.64810547 67.57311523 4.64810547 67.57311523 6.0625 68.375 C6.99449219 68.88740234 7.92648437 69.39980469 8.88671875 69.92773438 C15.79958039 73.78666078 15.79958039 73.78666078 16.9375 76.0625 C12.60674142 87.41327854 5.77551334 96.40861379 -5.0625 102.0625 C-11.60336414 104.76341092 -18.0024991 106.59954912 -25.0625 107.0625 C-25.69800781 107.1140625 -26.33351563 107.165625 -26.98828125 107.21875 C-43.4155433 107.96122512 -57.35345467 102.35070943 -69.625 91.875 C-83.05575481 76.37797522 -85.32460158 58.81897273 -84.0625 39.0625 C-82.49236762 26.36115426 -76.26806416 12.92381625 -66.21484375 4.74609375 C-47.2599841 -8.49697344 -20.58167211 -13.03618184 0 0 Z " fill="#FEFEFE" transform="translate(685.0625,95.9375)"/>
<path d="M0 0 C0 8.25 0 16.5 0 25 C10.23 25 20.46 25 31 25 C31 32.59 31 40.18 31 48 C21.9843668 49.12695415 21.9843668 49.12695415 17.94921875 49.1328125 C16.65467773 49.13474609 16.65467773 49.13474609 15.33398438 49.13671875 C14.46064453 49.13285156 13.58730469 49.12898438 12.6875 49.125 C11.79482422 49.12886719 10.90214844 49.13273437 9.98242188 49.13671875 C8.69754883 49.13478516 8.69754883 49.13478516 7.38671875 49.1328125 C6.22982544 49.13112061 6.22982544 49.13112061 5.04956055 49.12939453 C3 49 3 49 0 48 C0.06712759 55.42016322 0.15698496 62.83980485 0.26245117 70.25952148 C0.29565129 72.78224481 0.32369842 75.30504154 0.34643555 77.82788086 C0.38007096 81.45979006 0.43239367 85.09102957 0.48828125 88.72265625 C0.49467117 89.84583755 0.5010611 90.96901886 0.50764465 92.12623596 C0.61993326 98.14266025 0.9547411 102.74343675 4 108 C8.45114062 110.96742708 12.77523735 110.52397333 18 110 C21.33443944 108.54276115 21.33443944 108.54276115 24 107 C25.99609375 107.03125 25.99609375 107.03125 28 108 C29.4140625 110.66015625 29.4140625 110.66015625 30.625 114.0625 C31.04394531 115.23296875 31.46289062 116.4034375 31.89453125 117.609375 C33.12676061 121.38879225 34.16220624 125.11568346 35 129 C26.35633479 135.59648135 14.75488757 137.96518222 4 137 C-7.75374153 135.14987402 -15.43857796 132.7205629 -23.26953125 123.49609375 C-29.85817956 113.99237756 -29.14679568 101.24842599 -29.09765625 90.1875 C-29.0962413 88.97803711 -29.09482635 87.76857422 -29.09336853 86.52246094 C-29.08779709 82.68161485 -29.07524984 78.8408283 -29.0625 75 C-29.05748131 72.3867196 -29.05291905 69.77343827 -29.04882812 67.16015625 C-29.03783702 60.77341739 -29.02112743 54.38671295 -29 48 C-29.99 48.495 -29.99 48.495 -31 49 C-32.62268991 49.09611752 -34.24947306 49.12982352 -35.875 49.125 C-36.73867188 49.12757812 -37.60234375 49.13015625 -38.4921875 49.1328125 C-41 49 -41 49 -45 48 C-45 40.41 -45 32.82 -45 25 C-40.05 24.67 -35.1 24.34 -30 24 C-30.01160156 22.72382812 -30.02320313 21.44765625 -30.03515625 20.1328125 C-30.04453417 18.46354313 -30.05363437 16.79427217 -30.0625 15.125 C-30.07087891 14.28324219 -30.07925781 13.44148438 -30.08789062 12.57421875 C-30.09111328 11.76855469 -30.09433594 10.96289062 -30.09765625 10.1328125 C-30.10289307 9.38918457 -30.10812988 8.64555664 -30.11352539 7.87939453 C-30 6 -30 6 -29 4 C-24.12523245 2.2367862 -19.43468396 1.65370257 -14.28515625 1.21875 C-11.91894556 1.03477347 -11.91894556 1.03477347 -9.3125 0.4375 C-7 0 -7 0 0 0 Z " fill="#FEFEFE" transform="translate(431,66)"/>
<path d="M0 0 C3.82305195 3.5579186 6.80367891 6.9582607 7.3125 12.25 C6.88130808 17.42430305 4.77655358 20.09184986 1.3125 23.8125 C-2.33252849 25.68427139 -5.9233845 26.11343626 -10 26 C-15.37285867 24.17525555 -18.47401035 21.05197929 -21 16 C-21.59810582 9.89932061 -20.45869755 6.86087223 -17 2 C-11.37016687 -2.33064087 -6.53265895 -2.75059324 0 0 Z " fill="#FDFDFD" transform="translate(166,91)"/>
<path d="M0 0 C3.625 0.25 3.625 0.25 5.5 1.4375 C6.94841076 3.77105067 7.42434207 5.50767499 7.625 8.25 C6.64769781 10.95637529 6.21987555 11.95256222 3.625 13.25 C0.25 13.6875 0.25 13.6875 -3.375 13.25 C-5.8125 10.25 -5.8125 10.25 -7.375 7.25 C-3.97107522 0.29415372 -3.97107522 0.29415372 0 0 Z " fill="#FCFCFD" transform="translate(138.375,65.75)"/>
<path d="M0 0 C0.66 0 1.32 0 2 0 C1.60217121 1.77516029 1.18096339 3.54509163 0.75 5.3125 C0.51796875 6.29863281 0.2859375 7.28476563 0.046875 8.30078125 C-1.13349443 11.34419645 -2.24822646 12.33415362 -5 14 C-3.45730076 9.27934033 -1.92205381 4.58335908 0 0 Z " fill="#F6F5F9" transform="translate(23,190)"/>
</svg>
